<svg xmlns="http://www.w3.org/2000/svg" width="96" height="72" viewBox="0 0 96 72">
  <g fill="none" fill-rule="evenodd" transform="translate(0 .067)">
    <polygon fill="#EEEEEE" points="0 72.48 96 72.48 96 .246 0 .246"/>
    <g transform="translate(35.023 20.951)">
      <path fill="#FFFFFF" d="M12.9679978,0.852179188 L13.5952464,0.855380927 L0.62356597,8.28596112 L0.938110749,7.74328377 L0.938110749,22.9016674 L0.62356597,22.35899 L13.5952464,29.7895702 L12.9679978,29.792772 L25.6380112,22.3621918 L25.3289902,22.9016674 L25.3289902,7.74328377 L25.6380112,8.28275938 L12.9679978,0.852179188 Z M25.9543974,7.74328377 L25.9543974,22.9016674 L13.284384,30.3322476 L0.312703583,22.9016674 L0.312703583,7.74328377 L13.284384,0.312703583 L25.9543974,7.74328377 Z"/>
      <path fill="#3E3E3E" d="M13.284384,0.312703583 L0.312703583,7.74328377 L0.312703583,22.9016674 L13.284384,30.3322476 L25.9543974,22.9016674 L25.9543974,7.74328377 L13.284384,0.312703583 Z M26.1125905,7.47354597 C26.2083023,7.52967806 26.267101,7.63232629 26.267101,7.74328377 L26.267101,22.9016674 C26.267101,23.0126248 26.2083023,23.1152731 26.1125905,23.1714052 L13.4425771,30.6019854 C13.3458797,30.6586954 13.226224,30.6593062 13.1289528,30.6035862 L0.15727239,23.173006 C0.0600031251,23.1172872 0,23.0137651 0,22.9016674 L0,7.74328377 C0,7.63118605 0.0600031251,7.52766395 0.15727239,7.4719451 L13.1289528,0.0413649109 C13.226224,-0.01435507 13.3458797,-0.0137442973 13.4425771,0.0429657805 L26.1125905,7.47354597 Z"/>
      <path fill="#3E3E3E" d="M5.37589425,18.3068083 L5.54589477,18.4032268 L5.73873167,18.0632258 L5.56873115,17.9668073 L0.409122033,15.0404543 L0.23912152,14.9440358 L0.0462846208,15.2840369 L0.216285133,15.3804553 L5.37589425,18.3068083 Z M10.0976482,11.5374176 L10.2396254,11.6717275 L10.5082454,11.3877732 L10.3662682,11.2534632 L5.83583591,6.96768731 L5.69385874,6.83337732 L5.42523875,7.11733166 L5.56721592,7.25164165 L10.0976482,11.5374176 Z M15.7874495,11.994351 L15.8990643,12.1547842 L16.2199308,11.9315546 L16.108316,11.7711214 L10.3470118,3.48991825 L10.235397,3.32948499 L9.91453052,3.55271458 L10.0261453,3.71314783 L15.7874495,11.994351 Z M15.979747,12.1161754 L16.1484462,12.0174977 L15.9510909,11.6800994 L15.7823917,11.778777 L5.60817365,17.73001 L5.43947448,17.8286876 L5.63682981,18.166086 L5.80552898,18.0674083 L15.979747,12.1161754 Z M5.83012881,7.11392647 L5.83315722,6.91851019 L5.44232467,6.91245338 L5.43929626,7.10786965 L5.27327152,17.8210758 L5.27024311,18.0164921 L5.66107566,18.0225489 L5.66410407,17.8271326 L5.83012881,7.11392647 Z M5.77416599,7.26268344 L5.88156482,7.09939785 L5.55499366,6.88460018 L5.44759482,7.04788577 L0.149417999,15.103056 L0.0420191639,15.2663416 L0.368590332,15.4811392 L0.475989167,15.3178536 L5.77416599,7.26268344 Z M10.3555771,3.69969716 L10.4537412,3.53069865 L10.1157442,3.33437041 L10.0175801,3.50336892 L7.12766543,8.4786211 L7.02950131,8.64761961 L7.36749833,8.84394786 L7.46566245,8.67494935 L10.3555771,3.69969716 Z M10.3499234,3.75042581 L10.3479062,3.55499648 L9.95704753,3.55903086 L9.95906472,3.75446019 L10.0365289,11.2593462 L10.0385461,11.4547755 L10.4294047,11.4507411 L10.4273876,11.2553118 L10.3499234,3.75042581 Z M6.1231038,2.21749287 C6.1231038,1.05755649 5.18255501,0.117263844 4.02235589,0.117263844 C2.86215677,0.117263844 1.92160798,1.05755649 1.92160798,2.21749287 C1.92160798,3.37742925 2.86215677,4.3177219 4.02235589,4.3177219 C5.18255501,4.3177219 6.1231038,3.37742925 6.1231038,2.21749287 Z M2.31248746,2.21749287 C2.31248746,1.2734571 3.07800972,0.508143322 4.02235589,0.508143322 C4.96670206,0.508143322 5.73222432,1.2734571 5.73222432,2.21749287 C5.73222432,3.16152864 4.96670206,3.92684242 4.02235589,3.92684242 C3.07800972,3.92684242 2.31248746,3.16152864 2.31248746,2.21749287 Z" transform="translate(5.941 6.254)"/>
      <g fill="#FFFFFF" transform="translate(.625 7.818)" opacity=".5">
        <polygon points="12.508 7.192 13.008 7.192 13.008 21.264 12.508 21.264"/>
        <rect width=".5" height="14.236" x="6.381" y="-3.35" transform="rotate(-60 6.537 3.768)"/>
        <polygon points="18.476 -3.221 18.976 -3.221 18.976 10.743 18.476 10.743" transform="scale(-1 1) rotate(-60 0 36.034)"/>
      </g>
    </g>
  </g>
</svg>
