<svg xmlns="http://www.w3.org/2000/svg" width="20" height="20" viewBox="0 0 20 20">
  <g fill="none" fill-rule="evenodd">
    <rect width="20" height="20"/>
    <path fill="#0096D6" d="M17,10 C17,13.866 13.866,17 10,17 C6.134,17 3,13.866 3,10 C3,6.134 6.134,3 10,3 C13.866,3 17,6.134 17,10"/>
    <path fill="#FFFFFF" d="M10.5998 7.8983L9.3998 7.8983C9.0708 7.8983 8.7998 8.2113 8.7998 8.4983L8.7998 14.5003 11.1998 14.5003 11.1998 8.4983C11.1998 8.1803 10.9168 7.8983 10.5998 7.8983M10.0014 5.5C8.9894 5.5 8.8024 5.752 8.8024 6.397 8.8024 7.043 9.0374 7.295 10.0014 7.295 10.9654 7.295 11.2004 7.043 11.2004 6.397 11.2004 5.752 11.0124 5.5 10.0014 5.5"/>
  </g>
</svg>
