<svg xmlns="http://www.w3.org/2000/svg" width="49" height="48" viewBox="0 0 49 48">
  <path fill="#0096D6" fill-rule="evenodd" d="M24.1038961,48 C23.863649,48 23.6257083,47.9961726 23.3873831,47.9892833 L28.3134098,34.5092336 L35.0922222,34.5092336 C36.283079,34.5092336 37.5884857,33.598316 37.9955604,32.4856951 L43.3398092,17.8692948 C44.2143087,15.4764137 42.8374045,13.5187063 40.2804065,13.5187063 L30.8750206,13.5187063 L22.9845368,35.1089848 L22.9814616,35.1089848 L18.5078683,47.3481963 C7.89432772,44.8359009 0,35.3367142 0,24 C0,12.99091 7.44535393,3.71332887 17.5956981,0.886039613 L12.9802629,13.5187063 L12.9783409,13.5187063 L5.30465611,34.5092336 L10.4140394,34.5092336 L16.9391508,16.673237 L20.7784918,16.673237 L14.2529959,34.5092336 L19.359304,34.5103818 L25.4412076,17.8692948 C26.3157071,15.4764137 24.9388028,13.5187063 22.3837268,13.5187063 L18.0896461,13.5187063 L23.0202856,0.0248780021 C23.3796952,0.00956846235 23.7402581,0 24.1038961,0 C37.4158922,0 48.2077922,10.7453832 48.2077922,24 C48.2077922,37.2546168 37.4158922,48 24.1038961,48 L24.1038961,48 Z M38.6878565,16.6598412 L34.8504375,16.6598412 L29.4750526,31.3439862 L33.3136248,31.3439862 L38.6878565,16.6598412 Z"/>
</svg>
