<svg xmlns="http://www.w3.org/2000/svg" width="30" height="30" viewBox="0 0 30 30">
  <path fill="#FEFEFE" fill-rule="evenodd" d="M15.1115174,30 C14.9669299,30 14.8237306,29.9976079 14.6802998,29.9933021 L17.6449204,21.568271 L21.7245992,21.568271 C22.4412901,21.568271 23.2269204,20.9989475 23.4719093,20.3035595 L26.6882277,11.1683093 C27.2145259,9.67275859 26.3858664,8.44919146 24.8469936,8.44919146 L19.1865694,8.44919146 L14.4378556,21.9431155 L14.4360049,21.9431155 L11.7436714,29.5926227 C5.35614595,28.022438 0.60511883,22.0854464 0.60511883,15 C0.60511883,8.11931873 5.08594097,2.32083054 11.1947019,0.553774758 L8.41700391,8.44919146 L8.41584721,8.44919146 L3.79760918,21.568271 L6.87257887,21.568271 L10.7995733,10.4207731 L13.1101961,10.4207731 L9.18297025,21.568271 L12.2560892,21.5689886 L15.9163488,11.1683093 C16.442647,9.67275859 15.6139876,8.44919146 14.0762714,8.44919146 L11.4919736,8.44919146 L14.4593702,0.0155487513 C14.675673,0.00598028897 14.8926698,0 15.1115174,0 C23.1230488,0 29.6179159,6.71586451 29.6179159,15 C29.6179159,23.2841355 23.1230488,30 15.1115174,30 L15.1115174,30 Z M23.8885524,10.4124007 L21.5790864,10.4124007 L18.3440295,19.5899914 L20.6541896,19.5899914 L23.8885524,10.4124007 Z"/>
</svg>
