<svg xmlns="http://www.w3.org/2000/svg" width="48" height="48" viewBox="0 0 48 48">
  <g fill="none" fill-rule="evenodd">
    <rect width="48" height="48"/>
    <g transform="translate(12 6)">
      <path fill="#535353" d="M16 32C16 34.209 14.209 36 12 36 9.791 36 8 34.209 8 32 8 29.791 9.791 28 12 28 14.209 28 16 29.791 16 32M12 0C5.373 0 0 5.373 0 12 0 18.627 5.373 24 12 24 18.627 24 24 18.627 24 12 24 5.373 18.627 0 12 0zM12 2C17.514 2 22 6.486 22 12 22 17.514 17.514 22 12 22 6.486 22 2 17.514 2 12 2 6.486 6.486 2 12 2zM12 4C16.4112 4 20 7.5888 20 12 20 16.4112 16.4112 20 12 20 7.5888 20 4 16.4112 4 12 4 7.5888 7.5888 4 12 4"/>
      <path fill="#FFFFFF" d="M14 12C14 13.105 13.105 14 12 14 10.895 14 10 13.105 10 12 10 10.895 10.895 10 12 10 13.105 10 14 10.895 14 12M14 32C14 33.105 13.105 34 12 34 10.895 34 10 33.105 10 32 10 30.895 10.895 30 12 30 13.105 30 14 30.895 14 32"/>
      <path stroke="#535353" stroke-width="1.5" d="M1.7804,16.6863 L8.9454,33.1063"/>
    </g>
  </g>
</svg>
