<svg xmlns="http://www.w3.org/2000/svg" width="48" height="48" viewBox="0 0 48 48">
  <g fill="none" fill-rule="evenodd">
    <g fill="#535353" transform="translate(8 10)">
      <path d="M11 4.6667L1 4.6667C.45 4.6667 0 4.2167 0 3.6667L0 1.6667C0 1.1167.45.6667 1 .6667L11 .6667C11.55.6667 12 1.1167 12 1.6667L12 3.6667C12 4.2167 11.55 4.6667 11 4.6667M14 26L14 16C14 15.45 14.45 15 15 15L17 15C17.55 15 18 15.45 18 16L18 26C18 26.55 17.55 27 17 27L15 27C14.45 27 14 26.55 14 26M14 11L14 1C14 .45 14.45 0 15 0L17 0C17.55 0 18 .45 18 1L18 11C18 11.55 17.55 12 17 12L15 12C14.45 12 14 11.55 14 11M11 12L1 12C.45 12 0 11.55 0 11L0 9C0 8.45.45 8 1 8L11 8C11.55 8 12 8.45 12 9L12 11C12 11.55 11.55 12 11 12M11 19.6667L1 19.6667C.45 19.6667 0 19.2167 0 18.6667L0 16.6667C0 16.1167.45 15.6667 1 15.6667L11 15.6667C11.55 15.6667 12 16.1167 12 16.6667L12 18.6667C12 19.2167 11.55 19.6667 11 19.6667M11 27L1 27C.45 27 0 26.55 0 26L0 24C0 23.45.45 23 1 23L11 23C11.55 23 12 23.45 12 24L12 26C12 26.55 11.55 27 11 27M31 4.6667L21 4.6667C20.45 4.6667 20 4.2167 20 3.6667L20 1.6667C20 1.1167 20.45.6667 21 .6667L31 .6667C31.55.6667 32 1.1167 32 1.6667L32 3.6667C32 4.2167 31.55 4.6667 31 4.6667M31 12L21 12C20.45 12 20 11.55 20 11L20 9C20 8.45 20.45 8 21 8L31 8C31.55 8 32 8.45 32 9L32 11C32 11.55 31.55 12 31 12M31 19.6667L21 19.6667C20.45 19.6667 20 19.2167 20 18.6667L20 16.6667C20 16.1167 20.45 15.6667 21 15.6667L31 15.6667C31.55 15.6667 32 16.1167 32 16.6667L32 18.6667C32 19.2167 31.55 19.6667 31 19.6667M31 27L21 27C20.45 27 20 26.55 20 26L20 24C20 23.45 20.45 23 21 23L31 23C31.55 23 32 23.45 32 24L32 26C32 26.55 31.55 27 31 27"/>
    </g>
    <rect width="48" height="48"/>
  </g>
</svg>
