<svg xmlns="http://www.w3.org/2000/svg" width="24" height="24" viewBox="0 0 24 24" xmlns:xlink="http://www.w3.org/1999/xlink">
  <defs>
    <polygon id="a" points="0 12.344 11.955 12.344 11.955 .018 0 .018"/>
  </defs>
  <g fill="none" fill-rule="evenodd">
    <g transform="translate(6 5)">
      <g transform="translate(0 1.794)">
        <mask id="b" fill="white">
          <use xlink:href="#a"/>
        </mask>
        <path fill="#636363" d="M10.0993467,2.6161866 L9.25761333,10.7733158 C9.22881333,11.0512105 9.01001333,11.2569043 8.75614667,11.2569043 C8.73734667,11.2569043 8.71881333,11.255756 8.69988,11.2534593 C8.42268,11.2205885 8.22268,10.9517368 8.25348,10.6530287 L9.09561333,2.4961866 C9.12601333,2.19747847 9.37774667,1.98173684 9.65321333,2.01575598 C9.93028,2.04877033 10.13028,2.31762201 10.0993467,2.6161866 L10.0993467,2.6161866 Z M6.56668,10.7131722 C6.56668,11.0134593 6.34054667,11.2569043 6.06148,11.2569043 C5.78241333,11.2569043 5.55641333,11.0134593 5.55641333,10.7131722 L5.55641333,2.19360287 C5.55641333,1.89317225 5.78241333,1.64987081 6.06148,1.64987081 C6.34054667,1.64987081 6.56668,1.89317225 6.56668,2.19360287 L6.56668,10.7131722 Z M3.25494667,11.2534593 C3.23601333,11.255756 3.21708,11.2569043 3.19854667,11.2569043 C2.94441333,11.2569043 2.72574667,11.0512105 2.69708,10.7733158 L1.85521333,2.6161866 C1.82428,2.31762201 2.02428,2.04877033 2.30161333,2.01575598 C2.57908,1.98116268 2.82854667,2.19762201 2.85921333,2.4961866 L3.70108,10.6530287 C3.73201333,10.9517368 3.53214667,11.2205885 3.25494667,11.2534593 L3.25494667,11.2534593 Z M1.33333333e-05,0.0183875598 L1.29761333,11.3665694 C1.36041333,11.9065694 1.82108,12.344512 2.32668,12.344512 L10.5653467,12.344512 L11.95468,0.0183875598 L1.33333333e-05,0.0183875598 Z" mask="url(#b)"/>
      </g>
      <path fill="#636363" d="M8.27682667,1.08762201 L11.9382933,1.08762201 L11.9382933,0.759057416 C11.9382933,0.396330144 11.6652267,1.4354067e-05 11.3284267,1.4354067e-05 L0.64856,1.4354067e-05 C0.311626667,1.4354067e-05 0.03816,0.396330144 0.03816,0.759057416 L0.03816,1.08762201 L3.69976,1.08762201 L8.27682667,1.08762201 Z"/>
    </g>
    <rect width="24" height="24"/>
  </g>
</svg>
