<svg xmlns="http://www.w3.org/2000/svg" width="24" height="24" viewBox="0 0 24 24">
  <g fill="none" fill-rule="evenodd">
    <rect width="24" height="24"/>
    <path fill="#636363" d="M17.9264,10.3649 L10.6474,17.6429 C10.2634,17.0089 9.7894,16.3849 9.2094,15.8089 C8.6234,15.2259 7.9884,14.7489 7.3424,14.3659 L14.6354,7.0739 C15.3044,7.3889 15.9684,7.8339 16.5674,8.4319 C17.1674,9.0309 17.6114,9.6959 17.9264,10.3649 L17.9264,10.3649 Z M9.3034,18.9799 L6.0004,18.9799 L6.0004,15.6969 L6.4004,15.3019 C7.0694,15.6189 7.7374,16.0639 8.3354,16.6609 C8.9344,17.2609 9.3804,17.9199 9.6964,18.5889 L9.3034,18.9799 Z M18.8764,9.4149 C18.4924,8.7799 18.0184,8.1579 17.4384,7.5809 C16.8514,6.9989 16.2184,6.5209 15.5704,6.1379 L16.7084,4.9999 C16.7084,4.9999 18.3544,4.9999 19.1774,5.8229 C20.0004,6.6459 20.0004,8.2909 20.0004,8.2909 L18.8764,9.4149 Z"/>
  </g>
</svg>
