<svg xmlns="http://www.w3.org/2000/svg" width="16" height="16" viewBox="0 0 16 16">
  <g fill="none" fill-rule="evenodd">
    <g fill="#636363" transform="translate(0 2)">
      <path d="M10.8031301,6.40185485 L12.4035938,6.40185485 C12.4035938,9.05062229 10.2509701,11.203246 7.60220263,11.203246 C6.79396846,11.203246 6.02574588,11.003188 5.36155344,10.6430837 L4.19321493,11.8114222 C5.17750011,12.435603 6.34583862,12.8037097 7.60220263,12.8037097 C11.1392274,12.8037097 14.0040575,9.93887965 14.0040575,6.40185485 L15.6045212,6.40185485 L13.2038256,3.20092742 L10.8031301,6.40185485 Z M7.60220263,1.60046371 C8.41043681,1.60046371 9.17865939,1.80052168 9.84285183,2.16062601 L11.0111903,0.992287502 C10.0269052,0.368106654 8.85856665,0 7.60220263,0 C4.06517783,0 1.20034778,2.86483005 1.20034778,6.40185485 L-1.33265375e-16,6.40185485 L2.00057964,9.60278227 L4.00115928,6.40185485 L2.8008115,6.40185485 C2.8008115,3.75308741 4.95343519,1.60046371 7.60220263,1.60046371 Z"/>
      <path d="M7.21031945,8.24581737 C7.21031945,8.24581737 7.28996475,7.1212918 7.80580217,6.60545438 C8.32163958,6.08961696 9.44616515,6.00997167 9.44616515,6.00997167 C9.71295627,5.98871916 9.97438267,5.88121865 10.1786543,5.67694703 C10.6344482,5.22115309 10.6344482,4.48206124 10.1786543,4.02626729 C9.72286034,3.57047335 8.98376849,3.57047335 8.52797455,4.02626729 C8.32370293,4.23053891 8.21620241,4.49196531 8.19494991,4.75875643 C8.19494991,4.75875643 8.2184721,5.78011451 7.5994672,6.39911941 C6.9804623,7.01812432 5.95910421,6.99460213 5.95910421,6.99460213 C5.6923131,7.01585463 5.43088669,7.12335515 5.22661508,7.32762677 C4.77082114,7.78342071 4.77082114,8.52251256 5.22661508,8.9783065 C5.68240902,9.43410044 6.42150087,9.43410044 6.87729481,8.9783065 C7.08156643,8.77403488 7.18906695,8.51260848 7.21031945,8.24581737 Z M8.43191067,8.99459671 C7.97611641,8.53880244 7.97611641,7.79966871 8.43191067,7.34387444 C8.88770494,6.88808017 9.62683867,6.88808017 10.0826329,7.34387444 C10.5384272,7.79966871 10.5384272,8.53880244 10.0826329,8.99459671 C9.62683867,9.45039098 8.88770494,9.45039098 8.43191067,8.99459671 Z M5.22326491,5.69958646 C4.76747064,5.24379219 4.76747064,4.50465846 5.22326491,4.04886419 C5.67905918,3.59306992 6.41819291,3.59306992 6.87398718,4.04886419 C7.32978144,4.50465846 7.32978144,5.24379219 6.87398718,5.69958646 C6.41819291,6.15538073 5.67905918,6.15538073 5.22326491,5.69958646 Z"/>
    </g>
    <rect width="16" height="16"/>
  </g>
</svg>
