<svg xmlns="http://www.w3.org/2000/svg" width="16" height="16" viewBox="0 0 16 16">
  <g fill="none" fill-rule="evenodd">
    <g fill="#636363" transform="rotate(45 5.925 8.89)">
      <path d="M.788370533 8.61244541C-.0891247311 7.73495014-.0891247311 6.31196967.788370533 5.4344744 1.6658658 4.55697914 3.08884627 4.55697914 3.96634154 5.4344744 4.8438368 6.31196967 4.8438368 7.73495014 3.96634154 8.61244541 3.08884627 9.48994067 1.6658658 9.48994067.788370533 8.61244541M9.77679833 8.61244541C8.89930307 7.73495014 8.89930307 6.31196967 9.77679833 5.4344744 10.6542936 4.55697914 12.0772741 4.55697914 12.9547693 5.4344744 13.8322646 6.31196967 13.8322646 7.73495014 12.9547693 8.61244541 12.0772741 9.48994067 10.6542936 9.48994067 9.77679833 8.61244541"/>
      <path d="M9.91522012,5.32022025 C9.91522012,5.32022025 8.2759556,6.74263895 6.87151376,6.74263895 C5.46707191,6.74263895 3.82780739,5.32022025 3.82780739,5.32022025 C3.43568723,4.98596309 2.93345883,4.77642037 2.37729986,4.77642037 C1.13633504,4.77642037 0.130192907,5.78256251 0.130192907,7.02352732 C0.130192907,8.26449213 1.13633504,9.27063427 2.37729986,9.27063427 C2.93345883,9.27063427 3.43568723,9.06109155 3.82780739,8.72683439 C3.82780739,8.72683439 5.18618354,7.30441569 6.87151376,7.30441569 C8.55684397,7.30441569 9.91522012,8.72683439 9.91522012,8.72683439 C10.3073403,9.06109155 10.8095687,9.27063427 11.3657277,9.27063427 C12.6066925,9.27063427 13.6128346,8.26449213 13.6128346,7.02352732 C13.6128346,5.78256251 12.6066925,4.77642037 11.3657277,4.77642037 C10.8095687,4.77642037 10.3073403,4.98596309 9.91522012,5.32022025 Z" transform="rotate(90 6.872 7.024)"/>
    </g>
    <rect width="16" height="16"/>
  </g>
</svg>
