<svg xmlns="http://www.w3.org/2000/svg" width="120" height="120" viewBox="0 0 120 120" xmlns:xlink="http://www.w3.org/1999/xlink">
  <defs>
    <circle id="a" cx="60" cy="60" r="60"/>
    <mask id="b" width="120" height="120" x="0" y="0" fill="white">
      <use xlink:href="#a"/>
    </mask>
    <mask id="c" width="120" height="120" x="0" y="0" fill="white">
      <use xlink:href="#a"/>
    </mask>
  </defs>
  <g fill="none" fill-rule="evenodd">
    <use fill="#F4F4F4" stroke="#FFFFFF" stroke-width="10" mask="url(#b)" xlink:href="#a"/>
    <use stroke="#535353" stroke-width="4" mask="url(#c)" xlink:href="#a"/>
    <path fill="#5673A2" d="M71.5520233,60.1391023 C71.5212787,58.4185864 72.5601902,57.0403855 74.1460996,56.0785826 C73.8399345,55.1231662 73.4415357,54.2086233 72.9573081,53.3502813 C71.1702777,53.8497035 69.7047848,53.1740146 68.4634712,51.9771895 C67.2195956,50.7803645 66.8211967,49.3382988 67.2593074,47.5411452 C66.3830861,47.0864283 65.4530617,46.7223994 64.4833255,46.4516129 C63.5737975,48.064836 61.9007784,49.1530911 60.1739563,49.1837461 C58.4471341,49.2131239 56.7369653,48.1836244 55.7710722,46.603611 C54.8115842,46.9063298 53.8956511,47.3035684 53.0348021,47.7889404 C53.535683,49.5694891 53.1872441,51.025605 51.9882044,52.2633035 C50.7866026,53.5035566 49.3467302,54.22906 47.5430465,53.7922252 C47.0895635,54.6671721 46.7231903,55.594488 46.4516129,56.5601227 C48.0695479,57.4670019 49.1545764,58.806884 49.185321,60.5286772 C49.2147845,62.2504704 48.1822781,63.956936 46.5989308,64.9187389 C46.9025338,65.8741553 47.3009327,66.7886982 47.7864413,67.6470402 C49.5721906,67.147618 51.0325595,67.4950422 52.2751541,68.69059 C53.5177486,69.887415 53.9161475,71.3294807 53.4780369,73.1279115 C54.3555392,73.5813511 55.2855636,73.9453801 56.2540188,74.2161666 C57.1648278,72.6042207 58.8378469,71.5134111 60.564669,71.4840333 C62.2914911,71.4533783 64.00166,72.4854323 64.966272,74.0641685 C65.92576,73.7601724 66.8429742,73.3629338 67.7038232,72.8788391 C67.2029423,71.0982904 67.5501001,69.6434518 68.7504209,68.404476 C69.9494606,67.1655001 71.3906141,66.4387195 73.1930167,66.8755543 C73.6477807,66.0018847 74.014154,65.0745688 74.2857313,64.1063795 C72.6677963,63.2007776 71.5827679,61.8608955 71.5520233,60.1391023"/>
    <path fill="#F2F2F2" d="M59.9835294,52.2580685 C64.2558716,52.2537718 67.7290294,55.7083134 67.7419195,59.9820911 C67.7505129,64.2601656 64.2931096,67.7333261 60.0179029,67.7419195 C55.7455607,67.7505129 52.2709706,64.2945391 52.2580805,60.0193291 C52.2494871,55.7469836 55.7083227,52.2723908 59.9835294,52.2580685"/>
    <circle cx="60" cy="60" r="5.806" fill="#FFFFFF"/>
  </g>
</svg>
