<svg xmlns="http://www.w3.org/2000/svg" width="18" height="128" viewBox="0 0 18 128" xmlns:xlink="http://www.w3.org/1999/xlink">
  <defs>
    <path id="a" d="M0,2.99406028 C0,1.8927712 0.89211043,1 1.99796811,1 L122.002032,1 C123.105479,1 124,1.89451376 124,2.99406028 L124,15.0059397 C124,16.1072288 123.10789,17 122.002032,17 L1.99796811,17 C0.894520794,17 0,16.1054862 0,15.0059397 L0,2.99406028 Z"/>
    <mask id="b" width="126" height="18" x="-1" y="-1">
      <rect width="126" height="18" x="-1" fill="white"/>
      <use fill="black" xlink:href="#a"/>
    </mask>
    <mask id="c" width="124" height="16" x="0" y="0" fill="white">
      <use xlink:href="#a"/>
    </mask>
  </defs>
  <g fill="none" fill-rule="evenodd" transform="rotate(-90 63.5 63.5)">
    <g>
      <use fill="#D5D5D5" xlink:href="#a"/>
      <use stroke="#A2A2A2" stroke-width="2" mask="url(#b)" xlink:href="#a"/>
      <use stroke="#E2E2E2" stroke-width="2" mask="url(#c)" xlink:href="#a"/>
      <g transform="translate(1 2)">
        <rect width="122" height="14" fill="#FFFFFF" rx="1"/>
        <rect width="122" height="7" fill="#F4F4F4" rx="2"/>
      </g>
      <path fill="#A2A2A2" d="M116.5,7.5 L124.788086,7.5 L125.230469,7.5 L134.5,7.5 L134.5,9 C134.5,9.82842712 133.826138,10.5 132.991848,10.5 L117.836631,10.5 L117.836631,10.5 C117.09843,10.5 116.5,9.83420277 116.5,9 L116.5,7.5 Z" transform="rotate(-90 125.5 9)"/>
    </g>
    <rect width="5" height="1" x="120" y="17" fill="#A2A2A2"/>
    <rect width="5" height="1" x="120" fill="#A2A2A2"/>
  </g>
</svg>
