<svg xmlns="http://www.w3.org/2000/svg" width="24" height="24" viewBox="0 0 24 24" xmlns:xlink="http://www.w3.org/1999/xlink">
  <defs>
    <polygon id="a" points="6.12 11.952 12.24 11.952 12.24 0 6.12 0 0 0 0 11.952 6.12 11.952"/>
  </defs>
  <g fill="none" fill-rule="evenodd">
    <g transform="translate(6 6)">
      <mask id="b" fill="white">
        <use xlink:href="#a"/>
      </mask>
      <path fill="#3E3E3E" d="M4.50893878,1.25546939 C2.71518367,1.25546939 1.25559184,2.71493878 1.25559184,4.50881633 C1.25559184,6.30220408 2.71518367,7.76130612 4.50893878,7.76130612 C4.93763265,7.76130612 5.35689796,7.67767347 5.75522449,7.51236735 C6.53938776,7.18567347 7.17795918,6.55102041 7.50685714,5.7715102 C7.67620408,5.37244898 7.76204082,4.94767347 7.76204082,4.50881633 C7.76204082,2.71493878 6.30269388,1.25546939 4.50893878,1.25546939 M10.8062449,11.9521224 C10.6136327,11.9521224 10.432898,11.8773061 10.2973469,11.7416327 L6.88861224,8.33240816 L6.78183673,8.39510204 C6.08963265,8.80187755 5.30363265,9.01689796 4.50893878,9.01689796 C2.02273469,9.01689796 0,6.99465306 0,4.50881633 C0,2.02261224 2.02273469,0 4.50893878,0 C6.99526531,0 9.0177551,2.02261224 9.0177551,4.50881633 C9.0177551,5.30840816 8.80028571,6.09857143 8.38861224,6.79420408 L8.32518367,6.90110204 L12.2403673,10.816898 L11.3163673,11.7413878 C11.1803265,11.8773061 10.999102,11.9521224 10.8062449,11.9521224" mask="url(#b)"/>
    </g>
    <rect width="24" height="24"/>
  </g>
</svg>
