<svg xmlns="http://www.w3.org/2000/svg" width="24" height="24" viewBox="0 0 24 24">
  <g fill="none" fill-rule="evenodd">
    <rect width="23.977" height="24"/>
    <path fill="#3E3E3E" d="M11.9751037,14.3153527 C10.6804979,14.3153527 9.63485477,13.2697095 9.63485477,11.9751037 C9.63485477,10.6804979 10.6804979,9.63485477 11.9751037,9.63485477 C13.2697095,9.63485477 14.3153527,10.6804979 14.3153527,11.9751037 C14.3153527,13.2697095 13.2697095,14.3153527 11.9751037,14.3153527 L11.9751037,14.3153527 Z M16.6556017,11.9751037 C16.6556017,11.1784232 17.253112,10.5311203 18,10.4315353 C17.8506224,9.88381743 17.6514523,9.33609959 17.3526971,8.78838174 C16.7551867,9.23651452 15.8589212,9.23651452 15.3112033,8.68879668 C14.7634855,8.14107884 14.7136929,7.24481328 15.2116183,6.6473029 C14.7136929,6.34854772 14.1659751,6.09958506 13.5684647,6 C13.4688797,6.74688797 12.8215768,7.34439834 12.0248963,7.34439834 C11.2282158,7.34439834 10.5809129,6.74688797 10.4813278,6 C9.93360996,6.14937759 9.38589212,6.34854772 8.83817427,6.6473029 C9.28630705,7.24481328 9.28630705,8.14107884 8.68879668,8.68879668 C8.14107884,9.23651452 7.24481328,9.28630705 6.6473029,8.83817427 C6.34854772,9.33609959 6.09958506,9.88381743 6,10.4813278 C6.74688797,10.5809129 7.34439834,11.2282158 7.34439834,12.0248963 C7.34439834,12.8215768 6.74688797,13.4688797 6,13.5684647 C6.14937759,14.1161826 6.34854772,14.6639004 6.6473029,15.2116183 C7.24481328,14.7634855 8.14107884,14.7634855 8.68879668,15.3112033 C9.23651452,15.8589212 9.28630705,16.7551867 8.78838174,17.3526971 C9.28630705,17.6514523 9.8340249,17.9004149 10.4315353,18 C10.5311203,17.253112 11.1784232,16.6556017 11.9751037,16.6556017 C12.7717842,16.6556017 13.4190871,17.253112 13.5186722,18 C14.06639,17.8506224 14.6141079,17.6514523 15.1618257,17.3526971 C14.7136929,16.7551867 14.7136929,15.8589212 15.3112033,15.3112033 C15.8589212,14.7634855 16.7551867,14.7136929 17.3526971,15.1618257 C17.6514523,14.6639004 17.9004149,14.1161826 18,13.5186722 C17.2033195,13.4190871 16.6556017,12.7717842 16.6556017,11.9751037 L16.6556017,11.9751037 Z"/>
  </g>
</svg>
