<svg xmlns="http://www.w3.org/2000/svg" width="24" height="24" viewBox="0 0 24 24">
  <g fill="none" fill-rule="evenodd">
    <rect width="24" height="24"/>
    <path fill="#3E3E3E" d="M10.9501595,18 L12.7941488,18 L12.7941488,16.0176 L10.9501595,16.0176 L10.9501595,18 Z M12.9057704,14.7276 L10.9657866,14.7276 C10.9602055,14.7276 10.9590893,14.3904 10.9590893,14.3256 C10.9590893,13.6488 11.0617812,13.1652 11.2705136,12.7296 C11.4781298,12.2928 11.8933623,11.8392 12.5173272,11.2944 C13.141292,10.7496 13.5129921,10.41 13.6346596,10.2408 C13.8233002,9.9744 13.9159461,9.6888 13.9159461,9.3672 C13.9159461,8.9208 13.7496299,8.5416 13.4181137,8.2236 C13.0865975,7.9044 12.6389947,7.7472 12.0764217,7.7472 C11.5339406,7.7472 11.0807569,7.914 10.7146379,8.2464 C10.3496352,8.58 10.0996028,9.0864 9.96230817,9.768 L8,9.5064 C8.05581081,8.5308 8.44202164,7.7028 9.15974868,7.0212 C9.87635952,6.3408 10.818446,6 11.984892,6 C13.2116137,6 14.1883029,6.3444 14.9127272,7.0344 C15.6382678,7.7232 15.9999219,8.526 15.9999219,9.4416 C15.9999219,9.948 15.8670921,10.428 15.6014327,10.8804 C15.334657,11.3328 14.7653867,11.9484 13.8936218,12.7284 C13.4426704,13.1316 13.1625002,13.3116 13.053111,13.5564 C12.9437218,13.8012 12.8957245,14.7276 12.9057704,14.7276 L12.9057704,14.7276 Z"/>
  </g>
</svg>
