<svg xmlns="http://www.w3.org/2000/svg" width="20" height="20" viewBox="0 0 20 20" xmlns:xlink="http://www.w3.org/1999/xlink">
  <defs>
    <path id="a" d="M10,17 C13.8659932,17 17,13.8659932 17,10 C17,6.13400675 13.8659932,3 10,3 C6.13400675,3 3,6.13400675 3,10 C3,13.8659932 6.13400675,17 10,17 Z"/>
    <mask id="b" width="16" height="16" x="-1" y="-1">
      <rect width="16" height="16" x="2" y="2" fill="white"/>
      <use fill="black" xlink:href="#a"/>
    </mask>
  </defs>
  <g fill="none" fill-rule="evenodd">
    <rect width="20" height="20"/>
    <use fill="#CF2A1E" xlink:href="#a"/>
    <use stroke="#FFFFFF" stroke-width="2" mask="url(#b)" xlink:href="#a"/>
    <path fill="#FFFFFF" d="M11,9 L11,6 L9,6 L9,9 L6,9 L6,11 L9,11 L9,14 L11,14 L11,11 L14,11 L14,9 L11,9 Z" transform="rotate(45 10 10)"/>
  </g>
</svg>
