<svg xmlns="http://www.w3.org/2000/svg" width="20" height="20" viewBox="0 0 20 20" xmlns:xlink="http://www.w3.org/1999/xlink">
  <defs>
    <path id="a" d="M7.26499416,0.470608231 C7.67059028,-0.251573371 8.32653882,-0.254516096 8.73378765,0.470608231 L15.8786652,13.1923745 C16.2842613,13.9145561 15.9377297,14.5 15.1143848,14.5 L0.884396962,14.5 C0.0567004804,14.5 -0.287132181,13.9174989 0.120116653,13.1923745 L7.26499416,0.470608231 Z"/>
    <mask id="b" width="18" height="16.5" x="-1" y="-1">
      <rect width="18" height="16.5" x="-1" y="-1" fill="white"/>
      <use fill="black" xlink:href="#a"/>
    </mask>
  </defs>
  <g fill="none" fill-rule="evenodd">
    <rect width="20" height="20"/>
    <g transform="translate(2 3)">
      <use fill="#F4B51E" xlink:href="#a"/>
      <use stroke="#FFFFFF" stroke-width="2" mask="url(#b)" xlink:href="#a"/>
      <path fill="#0C0C0C" d="M8.74679113,10 L7.19097627,10 L6.66666667,4 L9.33333333,4 L8.74679113,10 Z M8.41695838,13.3333333 L7.58381953,13.3333333 C7.07740179,13.3333333 6.66666667,12.9225982 6.66666667,12.4169584 L6.66666667,12.2497083 C6.66666667,11.7432905 7.07740179,11.3333333 7.58381953,11.3333333 L8.41695838,11.3333333 C8.92337612,11.3333333 9.33333333,11.7432905 9.33333333,12.2497083 L9.33333333,12.4169584 C9.33333333,12.9225982 8.92337612,13.3333333 8.41695838,13.3333333"/>
    </g>
  </g>
</svg>
