<svg xmlns="http://www.w3.org/2000/svg" width="120" height="90" viewBox="0 0 120 90">
  <g fill="none" fill-rule="evenodd" transform="translate(0 -.916)">
    <polygon fill="#EEEEEE" points="0 90.6 120 90.6 120 .307 0 .307"/>
    <g transform="translate(43.779 26.189)">
      <path fill="#FFFFFF" d="M16.2099973,1.06522399 L16.994058,1.06922616 L0.779457462,10.3574514 L1.17263844,9.67910472 L1.17263844,28.6270842 L0.779457462,27.9487375 L16.994058,37.2369628 L16.2099973,37.2409649 L32.0475141,27.9527397 L31.6612378,28.6270842 L31.6612378,9.67910472 L32.0475141,10.3534492 L16.2099973,1.06522399 Z M32.4429967,9.67910472 L32.4429967,28.6270842 L16.60548,37.9153094 L0.390879479,28.6270842 L0.390879479,9.67910472 L16.60548,0.390879479 L32.4429967,9.67910472 Z"/>
      <path fill="#3E3E3E" d="M16.60548,0.390879479 L0.390879479,9.67910472 L0.390879479,28.6270842 L16.60548,37.9153094 L32.4429967,28.6270842 L32.4429967,9.67910472 L16.60548,0.390879479 Z M32.6407381,9.34193247 C32.7603779,9.41209757 32.8338762,9.54040787 32.8338762,9.67910472 L32.8338762,28.6270842 C32.8338762,28.7657811 32.7603779,28.8940914 32.6407381,28.9642565 L16.8032213,38.2524817 C16.6823496,38.3233693 16.53278,38.3241328 16.411191,38.2544828 L0.196590487,28.9662575 C0.0750039064,28.896609 0,28.7672064 0,28.6270842 L0,9.67910472 C0,9.53898256 0.0750039064,9.40957994 0.196590487,9.33993138 L16.411191,0.0517061386 C16.53278,-0.0179438375 16.6823496,-0.0171803717 16.8032213,0.0537072257 L32.6407381,9.34193247 Z"/>
      <path fill="#3E3E3E" d="M6.71986782,22.8835104 L6.93236846,23.0040335 L7.17341458,22.5790322 L6.96091394,22.4585091 L0.511402541,18.8005679 L0.2989019,18.6800448 L0.0578557759,19.1050461 L0.270356417,19.2255691 L6.71986782,22.8835104 Z M12.6220603,14.4217719 L12.7995317,14.5896594 L13.1353067,14.2347165 L12.9578353,14.066829 L7.29479489,8.70960914 L7.11732343,8.54172165 L6.78154844,8.89666457 L6.95901991,9.06455207 L12.6220603,14.4217719 Z M19.7343119,14.9929387 L19.8738303,15.1934803 L20.2749135,14.9144433 L20.135395,14.7139017 L12.9337648,4.36239781 L12.7942463,4.16185624 L12.3931631,4.44089322 L12.5326816,4.64143479 L19.7343119,14.9929387 Z M19.9746838,15.1452192 L20.1855577,15.0218721 L19.9388636,14.6001242 L19.7279896,14.7234713 L7.01021706,22.1625125 L6.7993431,22.2858596 L7.04603726,22.7076075 L7.25691122,22.5842604 L19.9746838,15.1452192 Z M7.28766102,8.89240808 L7.29144652,8.64813774 L6.80290584,8.64056672 L6.79912033,8.88483707 L6.5915894,22.2763448 L6.58780389,22.5206151 L7.07634458,22.5281861 L7.08013009,22.2839158 L7.28766102,8.89240808 Z M7.21770749,9.0783543 L7.35195603,8.87424732 L6.94374207,8.60575023 L6.80949353,8.80985721 L0.186772499,18.87882 L0.0525239549,19.0829269 L0.460737915,19.351424 L0.594986459,19.1473171 L7.21770749,9.0783543 Z M12.9444714,4.62462145 L13.0671765,4.41337332 L12.6446802,4.16796301 L12.5219751,4.37921115 L8.90958179,10.5982764 L8.78687663,10.8095245 L9.20937291,11.0549348 L9.33207806,10.8436867 L12.9444714,4.62462145 Z M12.9374042,4.68803226 L12.9348827,4.4437456 L12.4463094,4.44878857 L12.4488309,4.69307523 L12.5456611,14.0741827 L12.5481826,14.3184694 L13.0367559,14.3134264 L13.0342344,14.0691398 L12.9374042,4.68803226 Z M7.65387975,2.77186609 C7.65387975,1.32194561 6.47819376,0.146579805 5.02794486,0.146579805 C3.57769596,0.146579805 2.40200997,1.32194561 2.40200997,2.77186609 C2.40200997,4.22178657 3.57769596,5.39715238 5.02794486,5.39715238 C6.47819376,5.39715238 7.65387975,4.22178657 7.65387975,2.77186609 Z M2.89060932,2.77186609 C2.89060932,1.59182138 3.84751214,0.635179153 5.02794486,0.635179153 C6.20837758,0.635179153 7.1652804,1.59182138 7.1652804,2.77186609 C7.1652804,3.9519108 6.20837758,4.90855303 5.02794486,4.90855303 C3.84751214,4.90855303 2.89060932,3.9519108 2.89060932,2.77186609 Z" transform="translate(7.427 7.818)"/>
      <g fill="#FFFFFF" transform="translate(.782 9.772)" opacity=".5">
        <polygon points="15.635 8.99 16.135 8.99 16.135 26.58 15.635 26.58"/>
        <rect width=".5" height="17.795" x="7.976" y="-4.188" transform="rotate(-60 8.171 4.71)"/>
        <polygon points="23.095 -4.026 23.595 -4.026 23.595 13.429 23.095 13.429" transform="scale(-1 1) rotate(-60 0 45.042)"/>
      </g>
    </g>
  </g>
</svg>
